HIERARCHY
ROOT Hips
{
	OFFSET 0.00000 0.00000 0.00000
	CHANNELS 6 Xposition Yposition Zposition Zrotation Yrotation Xrotation 
	JOINT LHipJoint
	{
		OFFSET 0 0 0
		CHANNELS 3 Zrotation Yrotation Xrotation
		JOINT LeftUpLeg
		{
			OFFSET 1.64577 -1.42384 0.94276
			CHANNELS 3 Zrotation Yrotation Xrotation
			JOINT LeftLeg
			{
				OFFSET 2.11538 -5.81197 0.00000
				CHANNELS 3 Zrotation Yrotation Xrotation
				JOINT LeftFoot
				{
					OFFSET 2.36541 -6.49893 0.00000
					CHANNELS 3 Zrotation Yrotation Xrotation
					JOINT LeftToeBase
					{
						OFFSET 0.17759 -0.48793 1.73865
						CHANNELS 3 Zrotation Yrotation Xrotation
						End Site
						{
							OFFSET 0.00000 -0.00000 0.91205
						}
					}
				}
			}
		}
	}
	JOINT RHipJoint
	{
		OFFSET 0 0 0
		CHANNELS 3 Zrotation Yrotation Xrotation
		JOINT RightUpLeg
		{
			OFFSET -1.43750 -1.42384 0.94276
			CHANNELS 3 Zrotation Yrotation Xrotation
			JOINT RightLeg
			{
				OFFSET -2.10480 -5.78291 0.00000
				CHANNELS 3 Zrotation Yrotation Xrotation
				JOINT RightFoot
				{
					OFFSET -2.34880 -6.45329 0.00000
					CHANNELS 3 Zrotation Yrotation Xrotation
					JOINT RightToeBase
					{
						OFFSET -0.22842 -0.62757 1.80469
						CHANNELS 3 Zrotation Yrotation Xrotation
						End Site
						{
							OFFSET -0.00000 -0.00000 0.95886
						}
					}
				}
			}
		}
	}
	JOINT LowerBack
	{
		OFFSET 0 0 0
		CHANNELS 3 Zrotation Yrotation Xrotation
		JOINT Spine
		{
			OFFSET 0.06217 1.93758 -0.49272
			CHANNELS 3 Zrotation Yrotation Xrotation
			JOINT Spine1
			{
				OFFSET -0.03114 2.03621 -0.05830
				CHANNELS 3 Zrotation Yrotation Xrotation
				JOINT Neck
				{
					OFFSET 0 0 0
					CHANNELS 3 Zrotation Yrotation Xrotation
					JOINT Neck1
					{
						OFFSET 0.04421 1.41010 0.26562
						CHANNELS 3 Zrotation Yrotation Xrotation
						JOINT Head
						{
							OFFSET -0.13407 1.43847 0.06181
							CHANNELS 3 Zrotation Yrotation Xrotation
							End Site
							{
								OFFSET -0.04980 1.45844 -0.00689
							}
						}
					}
				}
				JOINT LeftShoulder
				{
					OFFSET 0 0 0
					CHANNELS 3 Zrotation Yrotation Xrotation
					JOINT LeftArm
					{
						OFFSET 2.18382 1.47753 -0.35694
						CHANNELS 3 Zrotation Yrotation Xrotation
						JOINT LeftForeArm
						{
							OFFSET 5.05460 -0.00000 0.00000
							CHANNELS 3 Zrotation Yrotation Xrotation
							JOINT LeftHand
							{
								OFFSET 3.39013 -0.00000 0.00000
								CHANNELS 3 Zrotation Yrotation Xrotation
								JOINT LeftFingerBase
								{
									OFFSET 0 0 0
									CHANNELS 3 Zrotation Yrotation Xrotation
									JOINT LeftHandIndex1
									{
										OFFSET 0.57242 -0.00000 -0.00000
										CHANNELS 3 Zrotation Yrotation Xrotation
										End Site
										{
											OFFSET 0.46150 -0.00000 -0.00000
										}
									}
								}
								JOINT LThumb
								{
									OFFSET 0 0 0
									CHANNELS 3 Zrotation Yrotation Xrotation
									End Site
									{
										OFFSET 0.46855 -0.00000 0.46855
									}
								}
							}
						}
					}
				}
				JOINT RightShoulder
				{
					OFFSET 0 0 0
					CHANNELS 3 Zrotation Yrotation Xrotation
					JOINT RightArm
					{
						OFFSET -2.06033 1.72839 -0.47437
						CHANNELS 3 Zrotation Yrotation Xrotation
						JOINT RightForeArm
						{
							OFFSET -5.07010 -0.00000 0.00000
							CHANNELS 3 Zrotation Yrotation Xrotation
							JOINT RightHand
							{
								OFFSET -3.14957 -0.00000 -0.00000
								CHANNELS 3 Zrotation Yrotation Xrotation
								JOINT RightFingerBase
								{
									OFFSET 0 0 0
									CHANNELS 3 Zrotation Yrotation Xrotation
									JOINT RightHandIndex1
									{
										OFFSET -0.71819 -0.00000 -0.00000
										CHANNELS 3 Zrotation Yrotation Xrotation
										End Site
										{
											OFFSET -0.57902 -0.00000 -0.00000
										}
									}
								}
								JOINT RThumb
								{
									OFFSET 0 0 0
									CHANNELS 3 Zrotation Yrotation Xrotation
									End Site
									{
										OFFSET -0.58786 -0.00000 0.58786
									}
								}
							}
						}
					}
				}
			}
		}
	}
}
MOTION
Frames: 15
Frame Time: .04
15.7386 15.2998 -1.1097 -175.7790 -81.7714 172.2730 0.0000 0.0000 0.0000 -21.9564 -13.6601 11.2284 1.3607 7.3835 20.8566 1.6493 17.8178 -36.1185 0.0363 -1.2301 -3.3821 0.0000 0.0000 0.0000 26.8342 10.5611 8.1096 -1.4499 -7.6115 21.5402 -2.5753 -18.6568 -41.3522 -0.8265 5.8002 -16.2057 -0.9308 2.4006 5.3173 -1.9023 3.0434 -1.1699 -1.7105 1.5023 -4.1342 10.6995 5.4154 -8.4856 -15.8884 7.5454 8.6588 -6.2214 3.1418 5.0224 -0.0000 0.0000 0.0000 -0.4558 -2.9986 -75.4249 10.9998 -18.2880 -1.7759 -0.0000 -0.0000 2.0329 41.4734 36.2251 27.5802 -7.1250 0.0000 -0.0000 14.2525 73.9255 9.7988 -0.0000 0.0000 0.0000 14.2580 4.3090 -52.6855 -14.0695 22.8340 -2.8550 0.0000 -0.0000 -31.8879 -42.6975 -13.8083 12.4195 7.1250 -0.0000 -0.0000 -14.9010 -47.8961 1.0874
15.7330 15.2995 -1.0933 -175.3870 -81.7935 171.8660 0.0000 0.0000 0.0000 -21.9724 -13.6370 11.1895 1.3718 7.4123 20.9427 1.6384 17.8654 -36.1041 0.0399 -1.2895 -3.5457 0.0000 0.0000 0.0000 26.9195 10.7562 8.3188 -1.4346 -7.5730 21.4244 -2.5967 -18.7733 -41.5422 -0.7977 5.7006 -15.9182 -0.7637 2.4275 5.1628 -1.8681 3.0968 -1.1526 -1.7646 1.5265 -4.0208 10.7205 5.2323 -8.4670 -15.6823 7.3524 9.4253 -6.1835 3.0427 5.2150 -0.0000 -0.0000 0.0000 -1.0025 -3.2911 -76.7858 10.8849 -18.1115 -1.7400 -0.0000 -0.0000 2.0995 42.4988 36.3002 28.4781 -7.1250 0.0000 -0.0000 16.4426 74.3410 11.4691 -0.0000 -0.0000 0.0000 14.7266 4.5492 -53.1961 -13.9101 22.6060 -2.7935 0.0000 -0.0000 -31.6695 -43.1941 -14.1155 12.8967 7.1250 -0.0000 -0.0000 -15.4622 -48.3855 1.3206
15.7272 15.2987 -1.0767 -175.3110 -81.7686 171.7540 0.0000 0.0000 0.0000 -22.0330 -13.5541 11.1695 1.3807 7.4352 21.0114 1.6297 17.9091 -36.0979 0.0426 -1.3315 -3.6613 0.0000 0.0000 0.0000 26.9470 10.9344 8.5138 -1.4247 -7.5480 21.3493 -2.6175 -18.8402 -41.6884 -0.7753 5.6221 -15.6918 -0.6208 2.4545 4.9656 -1.8252 3.1491 -1.1407 -1.7940 1.5511 -3.8906 10.7246 5.0697 -8.5200 -15.5372 7.1879 10.2045 -6.1605 2.9496 5.4313 -0.0000 0.0000 0.0000 -0.9716 -3.7523 -77.4347 10.8456 -18.0512 -1.7278 -0.0000 -0.0000 1.7856 43.2729 36.3631 29.1699 -7.1250 0.0000 -0.0000 18.1713 74.6586 12.8153 -0.0000 0.0000 0.0000 14.4335 5.1594 -53.5558 -13.9055 22.5995 -2.7917 0.0000 -0.0000 -31.5762 -43.6457 -14.2986 13.2554 7.1250 -0.0000 -0.0000 -15.9640 -48.7110 1.4963
15.7213 15.2970 -1.0599 -175.4490 -81.6795 171.8260 0.0000 0.0000 0.0000 -22.1333 -13.4271 11.2044 1.3847 7.4457 21.0426 1.6307 17.9473 -36.1387 0.0414 -1.3131 -3.6108 0.0000 0.0000 0.0000 26.9365 11.0980 8.6969 -1.4218 -7.5406 21.3271 -2.6317 -18.8717 -41.7772 -0.7628 5.5776 -15.5635 -0.4917 2.4821 4.7459 -1.7638 3.2017 -1.1277 -1.7952 1.5766 -3.7482 10.7182 4.9469 -8.6226 -15.4781 7.0776 10.9369 -6.1594 2.8757 5.6542 0.0000 0.0000 0.0000 -0.3614 -4.3690 -77.5181 10.8620 -18.0764 -1.7329 -0.0000 -0.0000 1.3313 43.7561 36.3312 29.5650 -7.1250 0.0000 -0.0000 19.2831 74.7781 13.6612 0.0000 0.0000 0.0000 13.3986 6.0851 -53.6151 -14.0366 22.7870 -2.8423 0.0000 -0.0000 -31.6022 -43.8623 -14.0628 13.1442 7.1250 -0.0000 -0.0000 -16.1474 -48.4535 1.4096
15.7160 15.2945 -1.0430 -175.8340 -81.5518 172.1070 0.0000 0.0000 0.0000 -22.2890 -13.2870 11.3105 1.3829 7.4410 21.0287 1.6411 17.9833 -36.2270 0.0359 -1.2227 -3.3618 0.0000 0.0000 0.0000 26.8857 11.2461 8.8735 -1.4260 -7.5511 21.3586 -2.6482 -18.8596 -41.8400 -0.7530 5.5425 -15.4625 -0.3911 2.5003 4.5249 -1.6821 3.2400 -1.1095 -1.7581 1.5961 -3.6029 10.6879 4.8691 -8.7161 -15.5145 7.0321 11.5619 -6.1801 2.8280 5.8559 -0.0000 0.0000 0.0000 0.7367 -5.0948 -76.8767 10.9616 -18.2294 -1.7639 -0.0000 -0.0000 0.6310 44.0872 36.1663 29.7532 -7.1250 0.0000 -0.0000 20.0431 74.7041 14.1782 -0.0000 0.0000 0.0000 11.6805 7.2675 -53.2499 -14.3111 23.1777 -2.9495 0.0000 -0.0000 -31.7973 -43.8119 -13.6014 12.7137 7.1250 -0.0000 -0.0000 -16.0104 -47.8507 1.1539
15.7115 15.2917 -1.0259 -176.5210 -81.4071 172.6620 0.0000 0.0000 0.0000 -22.5165 -13.1572 11.4794 1.3767 7.4250 20.9807 1.6601 18.0190 -36.3605 0.0274 -1.0686 -2.9377 0.0000 0.0000 0.0000 26.7789 11.3706 9.0444 -1.4350 -7.5740 21.4275 -2.6674 -18.8093 -41.8847 -0.7444 5.5114 -15.3730 -0.3235 2.5080 4.3058 -1.5912 3.2621 -1.0902 -1.6917 1.6083 -3.4604 10.6431 4.8369 -8.7528 -15.6458 7.0536 12.0544 -6.2235 2.8098 6.0205 0.0000 -0.0000 0.0000 2.2874 -5.9457 -75.6765 11.1328 -18.4915 -1.8178 -0.0000 0.0000 -0.1403 44.3013 35.8291 29.7378 -7.1250 0.0000 -0.0000 20.5042 74.4055 14.3817 0.0000 -0.0000 0.0000 9.3802 8.6397 -52.4842 -14.7309 23.7699 -3.1167 0.0000 -0.0000 -32.1937 -43.5362 -12.8738 11.9531 7.1250 -0.0000 -0.0000 -15.5984 -46.8609 0.7337
15.7083 15.2891 -1.0088 -177.3910 -81.2827 173.3740 0.0000 0.0000 0.0000 -22.7885 -13.0445 11.6817 1.3687 7.4043 20.9188 1.6836 18.0394 -36.5029 0.0184 -0.8768 -2.4099 0.0000 0.0000 0.0000 26.6355 11.4676 9.2159 -1.4463 -7.6024 21.5129 -2.6877 -18.7532 -41.9296 -0.7379 5.4877 -15.3051 -0.2637 2.5034 4.1033 -1.5050 3.2660 -1.0753 -1.6258 1.6114 -3.3323 10.5855 4.8535 -8.7079 -15.8226 7.1430 12.4129 -6.2728 2.8263 6.1409 -0.0000 -0.0000 0.0000 4.2364 -6.9621 -74.0637 11.3734 -18.8583 -1.8948 -0.0000 0.0000 -0.8662 44.4737 35.1234 29.4606 -7.1250 0.0000 -0.0000 20.7985 73.6904 14.2777 -0.0000 -0.0000 0.0000 6.6561 10.1327 -51.4344 -15.3242 24.5957 -3.3597 0.0000 -0.0000 -32.7809 -43.0773 -11.9542 10.9610 7.1250 -0.0000 -0.0000 -14.9837 -45.5936 0.2246
15.7063 15.2869 -0.9917 -178.2320 -81.1915 174.0540 0.0000 0.0000 0.0000 -23.0531 -12.9388 11.8702 1.3621 7.3871 20.8674 1.7034 18.0449 -36.6121 0.0116 -0.6951 -1.9103 0.0000 0.0000 0.0000 26.4952 11.5559 9.3916 -1.4567 -7.6286 21.5916 -2.7075 -18.7198 -41.9905 -0.7356 5.4795 -15.2813 -0.1705 2.4911 3.9086 -1.4290 3.2602 -1.0676 -1.5891 1.6088 -3.2141 10.5156 4.9108 -8.5891 -16.0109 7.2879 12.6774 -6.3181 2.8728 6.2275 0.0000 0.0000 0.0000 6.4947 -8.1413 -72.0080 11.6969 -19.3485 -2.0007 -0.0000 0.0000 -1.6869 44.6095 34.0914 28.9394 -7.1250 0.0000 -0.0000 20.9250 72.6003 13.8791 0.0000 0.0000 0.0000 3.6559 11.6771 -50.1956 -16.1264 25.6917 -3.7006 0.0000 -0.0000 -33.5564 -42.6321 -10.9029 9.8775 7.1250 -0.0000 -0.0000 -14.3812 -44.1656 -0.3027
15.7059 15.2857 -0.9747 -178.8450 -81.1457 174.5200 0.0000 0.0000 0.0000 -23.2535 -12.8264 11.9960 1.3595 7.3803 20.8469 1.7116 18.0325 -36.6436 0.0078 -0.5718 -1.5713 0.0000 0.0000 0.0000 26.3975 11.6501 9.5680 -1.4640 -7.6468 21.6465 -2.7258 -18.7319 -42.0804 -0.7369 5.4840 -15.2944 -0.0173 2.4742 3.7189 -1.3597 3.2505 -1.0681 -1.5930 1.6030 -3.1035 10.4481 5.0060 -8.4134 -16.2054 7.4823 12.8672 -6.3605 2.9470 6.2886 0.0000 -0.0000 0.0000 8.9886 -9.4895 -69.6594 12.1057 -19.9630 -2.1383 -0.0000 0.0000 -2.5827 44.5972 32.8569 28.1453 -7.1250 0.0000 -0.0000 20.6787 71.2290 13.0979 0.0000 -0.0000 0.0000 0.4985 13.2005 -48.8243 -17.1709 27.0825 -4.1648 0.0000 -0.0000 -34.5023 -42.1679 -9.7342 8.7066 7.1250 -0.0000 -0.0000 -13.7629 -42.5907 -0.8354
15.7074 15.2853 -0.9583 -179.1580 -81.1448 174.7050 0.0000 0.0000 0.0000 -23.3648 -12.6926 12.0430 1.3617 7.3860 20.8641 1.7069 17.9938 -36.5840 0.0065 -0.5186 -1.4251 0.0000 0.0000 0.0000 26.3591 11.7514 9.7437 -1.4675 -7.6556 21.6729 -2.7421 -18.7921 -42.1995 -0.7389 5.4915 -15.3158 0.2014 2.4584 3.5380 -1.2950 3.2442 -1.0683 -1.6390 1.5978 -2.9937 10.4003 5.1312 -8.2091 -16.4123 7.7141 13.0027 -6.4063 3.0420 6.3349 -0.0000 -0.0000 0.0000 11.6088 -10.9737 -67.0108 12.6376 -20.7539 -2.3233 -0.0000 0.0000 -3.7111 44.5260 31.4768 27.1844 -7.1250 0.0000 -0.0000 20.2906 69.6612 12.1462 -0.0000 -0.0000 0.0000 -2.6899 14.6534 -47.4319 -18.5104 28.8058 -4.7927 0.0000 -0.0000 -35.5376 -41.8118 -8.3261 7.3802 7.1250 -0.0000 -0.0000 -13.2280 -40.7289 -1.4214
15.7109 15.2856 -0.9423 -179.3480 -81.1964 174.7800 0.0000 0.0000 0.0000 -23.4231 -12.5459 12.0245 1.3678 7.4019 20.9117 1.6865 17.9464 -36.4332 0.0071 -0.5427 -1.4914 0.0000 0.0000 0.0000 26.3398 11.8311 9.9064 -1.4680 -7.6568 21.6763 -2.7566 -18.8800 -42.3322 -0.7396 5.4941 -15.3233 0.4525 2.4430 3.3738 -1.2412 3.2386 -1.0642 -1.7150 1.5923 -2.8865 10.3654 5.2754 -7.9813 -16.6188 7.9681 13.0978 -6.4517 3.1507 6.3686 -0.0000 -0.0000 0.0000 14.2530 -12.5337 -64.0894 13.3372 -21.7793 -2.5771 -0.0000 0.0000 -5.0800 44.4218 29.9372 26.0623 -7.1250 0.0000 -0.0000 19.8241 67.8838 11.0716 -0.0000 -0.0000 0.0000 -5.8252 16.0135 -46.0603 -20.1908 30.8715 -5.6289 0.0000 -0.0000 -36.5439 -41.4860 -6.8725 6.0403 7.1250 -0.0000 -0.0000 -12.7281 -38.8172 -1.9764
15.7167 15.2860 -0.9267 -179.6180 -81.3087 174.9420 0.0000 0.0000 0.0000 -23.4806 -12.4190 11.9767 1.3750 7.4206 20.9677 1.6507 17.9129 -36.2131 0.0095 -0.6296 -1.7302 0.0000 0.0000 0.0000 26.2954 11.8615 10.0377 -1.4676 -7.6558 21.6734 -2.7708 -18.9731 -42.4677 -0.7373 5.4855 -15.2986 0.6923 2.4217 3.2362 -1.2010 3.2228 -1.0574 -1.7995 1.5819 -2.7916 10.3559 5.4393 -7.7230 -16.8244 8.2440 13.1513 -6.4988 3.2743 6.3887 -0.0000 0.0000 0.0000 16.8304 -14.1109 -60.9591 14.2580 -23.1023 -2.9286 -0.0000 0.0000 -6.6034 44.4463 28.3754 24.9925 -7.1250 0.0000 -0.0000 19.5796 66.0985 10.1366 -0.0000 0.0000 0.0000 -8.8393 17.2996 -44.8018 -22.2407 33.2480 -6.7173 0.0000 -0.0000 -37.3536 -41.0923 -5.1968 4.5166 7.1250 -0.0000 -0.0000 -12.1512 -36.6202 -2.5507
15.7248 15.2862 -0.9118 -179.9820 -81.4614 175.1980 0.0000 0.0000 0.0000 -23.5562 -12.3345 11.9437 1.3799 7.4332 21.0053 1.6104 17.8909 -35.9780 0.0127 -0.7289 -2.0032 0.0000 0.0000 0.0000 26.2308 11.8570 10.1383 -1.4690 -7.6592 21.6838 -2.7945 -19.0439 -42.6264 -0.7263 5.4454 -15.1833 0.9025 2.3907 3.1284 -1.1652 3.1921 -1.0436 -1.8726 1.5644 -2.7085 10.3745 5.6142 -7.4240 -17.0360 8.5307 13.1669 -6.5519 3.4076 6.3934 0.0000 0.0000 0.0000 19.2590 -15.6297 -57.6682 15.4478 -24.7662 -3.4113 -0.0000 0.0000 -8.1795 44.4911 26.7075 23.8225 -7.1250 0.0000 -0.0000 19.3340 64.1716 9.1451 0.0000 0.0000 0.0000 -11.6911 18.5632 -43.7362 -24.6945 35.8901 -8.1102 0.0000 -0.0000 -37.8524 -40.6015 -3.3859 2.8981 7.1250 -0.0000 -0.0000 -11.4907 -34.2572 -3.0813
15.7348 15.2861 -0.8975 -180.5700 -81.6390 175.6770 0.0000 0.0000 0.0000 -23.6823 -12.3095 11.9509 1.3804 7.4346 21.0094 1.5740 17.8786 -35.7713 0.0154 -0.8010 -2.2015 0.0000 0.0000 0.0000 26.1272 11.8283 10.2087 -1.4731 -7.6694 21.7145 -2.8372 -19.0601 -42.8228 -0.7025 5.3574 -14.9308 1.0544 2.3473 3.0394 -1.1319 3.1415 -1.0208 -1.9155 1.5381 -2.6307 10.4329 5.7904 -7.1045 -17.2633 8.8176 13.1786 -6.6180 3.5435 6.3963 -0.0000 0.0000 0.0000 21.4818 -17.0269 -54.2629 16.9625 -26.8083 -4.0704 -0.0000 0.0000 -9.6802 44.5713 25.0126 22.6136 -7.1250 0.0000 -0.0000 19.1202 62.1955 8.1543 -0.0000 0.0000 0.0000 -14.3569 19.8435 -42.8617 -27.5968 38.7424 -9.8703 0.0000 -0.0000 -37.9365 -40.0701 -1.4345 1.2064 7.1250 -0.0000 -0.0000 -10.7964 -31.7345 -3.5590
15.7462 15.2859 -0.8841 -181.4410 -81.8303 176.4460 0.0000 0.0000 0.0000 -23.8679 -12.3490 11.9978 1.3768 7.4253 20.9817 1.5437 17.8807 -35.6090 0.0167 -0.8345 -2.2934 0.0000 0.0000 0.0000 25.9769 11.7822 10.2506 -1.4789 -7.6840 21.7582 -2.8956 -19.0242 -43.0450 -0.6688 5.2299 -14.5655 1.1354 2.2925 2.9577 -1.1022 3.0723 -0.9930 -1.9223 1.5037 -2.5562 10.5345 5.9463 -6.7920 -17.4987 9.0773 13.2331 -6.6985 3.6665 6.4128 -0.0000 0.0000 0.0000 23.4846 -18.3007 -50.8984 18.8264 -29.2024 -4.9458 -0.0000 0.0000 -10.8733 44.6829 23.2735 21.3442 -7.1250 0.0000 -0.0000 18.9232 60.1458 7.1442 -0.0000 0.0000 0.0000 -16.8215 21.1483 -42.1381 -30.9899 41.7269 -12.0631 0.0000 -0.0000 -37.6319 -39.4938 0.6205 -0.5114 7.1250 -0.0000 -0.0000 -10.0702 -29.1085 -3.9551
